<svg xmlns="http://www.w3.org/2000/svg" xmlns:xlink="http://www.w3.org/1999/xlink" width="500" zoomAndPan="magnify" viewBox="0 0 375 374.999991" height="500" preserveAspectRatio="xMidYMid meet" version="1.0"><defs><g/><clipPath id="21f37e00ac"><path d="M 22 108.003906 L 118.90625 108.003906 L 118.90625 239.253906 L 22 239.253906 Z M 22 108.003906 " clip-rule="nonzero"/></clipPath><clipPath id="9be1a6ed99"><path d="M 129.695312 167.832031 L 164.75 167.832031 L 164.75 193.257812 L 129.695312 193.257812 Z M 129.695312 167.832031 " clip-rule="nonzero"/></clipPath><clipPath id="cc35597350"><path d="M 124.671875 187 L 135 187 L 135 191 L 124.671875 191 Z M 124.671875 187 " clip-rule="nonzero"/></clipPath><clipPath id="f23a64ba16"><path d="M 131.832031 172.429688 L 147.109375 172.429688 L 147.109375 193.257812 L 131.832031 193.257812 Z M 131.832031 172.429688 " clip-rule="nonzero"/></clipPath><clipPath id="11ddb88ab7"><path d="M 149.246094 151.675781 L 180.167969 151.675781 L 180.167969 178.9375 L 149.246094 178.9375 Z M 149.246094 151.675781 " clip-rule="nonzero"/></clipPath><clipPath id="29778e6623"><path d="M 163 141.539062 L 170 141.539062 L 170 147 L 163 147 Z M 163 141.539062 " clip-rule="nonzero"/></clipPath></defs><rect x="-37.5" width="450" fill="#ffffff" y="-37.499999" height="449.999989" fill-opacity="1"/><rect x="-37.5" width="450" fill="#f8f9fa" y="-37.499999" height="449.999989" fill-opacity="1"/><g clip-path="url(#21f37e00ac)"><path fill="#6d5133" d="M 118.300781 163.46875 L 116.070312 143.757812 C 115.671875 140.304688 112.738281 137.675781 109.257812 137.675781 L 98.164062 137.675781 L 98.164062 132.054688 C 98.164062 118.851562 87.4375 108.125 74.234375 108.125 C 61.035156 108.125 50.308594 118.851562 50.308594 132.054688 L 50.308594 137.675781 L 39.214844 137.675781 C 35.730469 137.675781 32.796875 140.304688 32.402344 143.757812 L 22.378906 231.738281 C 21.890625 235.953125 25.1875 239.621094 29.4375 239.621094 L 33.164062 239.621094 C 48.566406 173.523438 97.917969 164.355469 118.300781 163.46875 Z M 95.109375 144.859375 C 96.789062 144.859375 98.164062 146.234375 98.164062 147.914062 C 98.164062 149.59375 96.789062 150.96875 95.109375 150.96875 C 93.425781 150.96875 92.050781 149.59375 92.050781 147.914062 C 92.050781 146.234375 93.425781 144.859375 95.109375 144.859375 Z M 56.421875 132.085938 C 56.421875 122.273438 64.394531 114.269531 74.234375 114.269531 C 84.074219 114.269531 92.050781 122.273438 92.050781 132.085938 L 92.050781 137.707031 L 56.421875 137.707031 Z M 53.363281 144.859375 C 55.046875 144.859375 56.421875 146.234375 56.421875 147.914062 C 56.421875 149.59375 55.046875 150.96875 53.363281 150.96875 C 51.683594 150.96875 50.308594 149.59375 50.308594 147.914062 C 50.308594 146.234375 51.683594 144.859375 53.363281 144.859375 Z M 53.363281 144.859375 " fill-opacity="1" fill-rule="nonzero"/></g><path fill="#000000" d="M 151.726562 168.058594 C 152.367188 166.621094 152.875 165.109375 153.1875 164.097656 C 153.796875 162.113281 154.367188 160.164062 154.617188 158.144531 C 154.914062 155.777344 154.699219 153.761719 153.957031 151.984375 C 153.460938 150.789062 152.703125 149.617188 151.761719 148.601562 C 150.777344 147.535156 149.628906 146.683594 148.445312 146.136719 C 146.695312 145.332031 144.894531 145.199219 143.234375 145.75 C 140.859375 146.542969 139.359375 148.5625 138.890625 151.59375 C 138.546875 153.816406 138.785156 156.589844 139.527344 159.015625 C 140.929688 163.585938 143.644531 167.625 146.269531 171.527344 C 146.40625 171.730469 146.542969 171.933594 146.675781 172.136719 L 146.941406 172.527344 L 147.410156 172.550781 C 148.09375 172.582031 148.765625 172.296875 149.410156 171.699219 C 150.191406 170.980469 150.96875 169.753906 151.726562 168.058594 " fill-opacity="1" fill-rule="nonzero"/><path fill="#ffffff" d="M 147.53125 171.480469 C 147.40625 171.296875 147.285156 171.113281 147.160156 170.929688 C 144.582031 167.089844 141.910156 163.121094 140.558594 158.703125 C 139.859375 156.421875 139.632812 153.828125 139.953125 151.757812 C 140.144531 150.519531 140.523438 149.476562 141.078125 148.660156 C 141.691406 147.753906 142.53125 147.117188 143.574219 146.769531 C 144.3125 146.523438 145.082031 146.4375 145.863281 146.515625 C 146.59375 146.585938 147.339844 146.800781 148.078125 147.152344 C 149.121094 147.648438 150.132812 148.414062 151.003906 149.367188 C 151.84375 150.28125 152.523438 151.328125 152.964844 152.394531 C 153.628906 153.996094 153.824219 155.835938 153.550781 158.011719 C 153.308594 159.945312 152.753906 161.84375 152.15625 163.78125 C 151.855469 164.765625 151.363281 166.230469 150.742188 167.621094 C 150.042969 169.183594 149.351562 170.289062 148.679688 170.914062 C 148.28125 171.28125 147.894531 171.472656 147.53125 171.480469 " fill-opacity="1" fill-rule="nonzero"/><g clip-path="url(#9be1a6ed99)"><path fill="#000000" d="M 164.679688 180.660156 C 164.628906 181.171875 164.542969 181.675781 164.421875 182.167969 C 164.417969 182.175781 164.417969 182.183594 164.414062 182.195312 C 164.132812 183.304688 163.660156 184.363281 163.007812 185.351562 C 162.910156 185.5 162.808594 185.644531 162.703125 185.789062 C 161.570312 187.34375 160.109375 188.6875 158.363281 189.792969 C 158.082031 189.96875 157.792969 190.140625 157.496094 190.308594 C 156.378906 190.933594 155.160156 191.464844 153.863281 191.894531 C 152.964844 192.195312 152.023438 192.449219 151.050781 192.652344 C 149.742188 192.925781 148.390625 193.109375 147.019531 193.195312 C 146.800781 193.210938 146.582031 193.222656 146.363281 193.230469 C 144.875 193.292969 142.9375 193.265625 140.894531 192.957031 C 139.6875 192.773438 138.445312 192.492188 137.238281 192.070312 C 135.625 191.507812 134.238281 190.746094 133.113281 189.804688 C 131.824219 188.730469 130.871094 187.414062 130.277344 185.890625 C 130.117188 185.488281 129.992188 185.066406 129.898438 184.644531 C 129.695312 183.710938 129.648438 182.730469 129.761719 181.730469 C 129.871094 180.742188 130.140625 179.734375 130.558594 178.734375 C 130.902344 177.914062 131.339844 177.109375 131.867188 176.320312 C 132.652344 175.144531 133.644531 174.003906 134.828125 172.914062 C 134.96875 172.785156 135.113281 172.660156 135.253906 172.535156 C 136.144531 171.757812 137.074219 171.078125 138.035156 170.492188 C 139.128906 169.824219 140.269531 169.285156 141.449219 168.871094 C 142.054688 168.65625 142.667969 168.476562 143.296875 168.332031 C 143.421875 168.300781 143.550781 168.273438 143.679688 168.246094 C 144.660156 168.042969 145.664062 167.917969 146.691406 167.875 C 150.140625 167.726562 153.839844 168.488281 157.726562 170.15625 C 159.515625 170.921875 160.996094 171.894531 162.125 173.042969 C 163.492188 174.433594 164.324219 176.054688 164.59375 177.867188 C 164.65625 178.289062 164.699219 178.707031 164.714844 179.121094 C 164.738281 179.644531 164.726562 180.15625 164.679688 180.660156 " fill-opacity="1" fill-rule="nonzero"/></g><path fill="#fbc906" d="M 161.894531 185.199219 C 161.789062 185.34375 161.683594 185.484375 161.570312 185.625 C 158.003906 190.125 151.878906 192 146.324219 192.230469 C 143.214844 192.359375 139.460938 192.035156 136.394531 190.660156 C 135.847656 190.414062 135.320312 190.136719 134.824219 189.816406 C 133.230469 188.804688 131.945312 187.410156 131.207031 185.527344 C 131.070312 185.171875 130.960938 184.804688 130.878906 184.429688 C 130.152344 181.117188 131.675781 177.167969 135.507812 173.652344 C 142.21875 167.484375 150.171875 168.003906 157.332031 171.074219 C 160.363281 172.375 163.089844 174.582031 163.605469 178.015625 C 163.652344 178.347656 163.6875 178.675781 163.707031 178.996094 C 163.855469 181.421875 163.152344 183.480469 161.894531 185.199219 " fill-opacity="1" fill-rule="nonzero"/><g clip-path="url(#cc35597350)"><path fill="#000000" d="M 131.617188 187.117188 L 124.886719 189.546875 C 124.671875 189.65625 124.730469 190.019531 124.964844 190.027344 L 134.445312 189.667969 L 131.617188 187.117188 " fill-opacity="1" fill-rule="nonzero"/></g><g clip-path="url(#f23a64ba16)"><path fill="#000000" d="M 147.019531 193.195312 C 146.800781 193.210938 146.582031 193.222656 146.363281 193.230469 C 144.875 193.292969 142.9375 193.265625 140.894531 192.957031 C 137.644531 190.082031 134.9375 186.375 133.445312 182.699219 C 132.597656 180.601562 132.070312 178.441406 131.867188 176.320312 C 132.652344 175.144531 133.644531 174.003906 134.828125 172.914062 C 134.96875 172.785156 135.113281 172.660156 135.253906 172.535156 C 134.9375 175.347656 135.382812 178.445312 136.59375 181.425781 C 138.136719 185.230469 141.191406 189.089844 144.769531 191.742188 C 145.519531 192.296875 146.273438 192.785156 147.019531 193.195312 " fill-opacity="1" fill-rule="nonzero"/></g><path fill="#000000" d="M 158.363281 189.792969 C 158.082031 189.96875 157.792969 190.140625 157.496094 190.308594 C 156.378906 190.933594 155.160156 191.464844 153.863281 191.894531 C 153.25 191.628906 152.628906 191.328125 152 190.992188 C 147.554688 188.597656 143.476562 184.75 141.097656 180.691406 C 139.191406 177.4375 138.148438 173.882812 138.035156 170.492188 C 139.128906 169.824219 140.269531 169.285156 141.449219 168.871094 C 141.21875 172.117188 142.109375 175.707031 144.027344 178.976562 C 146.105469 182.523438 149.6875 185.898438 153.609375 188.007812 C 155.253906 188.890625 156.878906 189.5 158.363281 189.792969 " fill-opacity="1" fill-rule="nonzero"/><path fill="#000000" d="M 164.421875 182.167969 C 164.417969 182.175781 164.417969 182.183594 164.414062 182.195312 C 164.132812 183.304688 163.660156 184.363281 163.007812 185.351562 C 162.410156 185.230469 161.796875 185.078125 161.175781 184.902344 C 156.320312 183.507812 151.515625 180.609375 148.328125 177.152344 C 145.902344 174.515625 144.175781 171.453125 143.296875 168.332031 C 143.421875 168.300781 143.550781 168.273438 143.679688 168.246094 C 144.660156 168.042969 145.664062 167.917969 146.691406 167.875 C 147.464844 170.324219 148.875 172.742188 150.824219 174.855469 C 153.609375 177.878906 157.828125 180.414062 162.113281 181.644531 C 162.898438 181.867188 163.671875 182.042969 164.421875 182.167969 " fill-opacity="1" fill-rule="nonzero"/><path fill="#000000" d="M 148.457031 171.785156 C 148.832031 170.613281 148.921875 168.921875 148.722656 166.765625 C 148.550781 164.929688 148.199219 163.097656 147.9375 161.886719 C 147.421875 159.507812 146.882812 157.191406 145.980469 154.988281 C 144.921875 152.410156 143.550781 150.484375 141.78125 149.097656 C 140.789062 148.324219 139.597656 147.65625 138.335938 147.171875 C 136.378906 146.417969 134.371094 146.128906 132.527344 146.332031 C 131.519531 146.445312 130.578125 146.703125 129.730469 147.105469 C 128.816406 147.535156 128.011719 148.132812 127.335938 148.875 C 126.292969 150.027344 125.699219 151.390625 125.570312 152.933594 C 125.457031 154.265625 125.695312 155.722656 126.273438 157.261719 C 127.195312 159.71875 129.03125 162.410156 131.179688 164.457031 C 135.234375 168.316406 140.332031 170.882812 145.257812 173.367188 C 145.515625 173.496094 145.773438 173.625 146.027344 173.753906 C 146.058594 173.769531 146.089844 173.785156 146.121094 173.796875 C 146.390625 173.898438 146.6875 173.882812 146.941406 173.757812 C 147.640625 173.40625 148.148438 172.746094 148.457031 171.785156 " fill-opacity="1" fill-rule="nonzero"/><path fill="#ffffff" d="M 147.058594 172.054688 C 146.832031 172.445312 146.339844 172.59375 145.9375 172.390625 C 145.886719 172.363281 145.839844 172.339844 145.789062 172.316406 C 140.941406 169.871094 135.925781 167.34375 131.996094 163.601562 C 129.96875 161.671875 128.242188 159.148438 127.378906 156.847656 C 126.863281 155.472656 126.648438 154.1875 126.746094 153.03125 C 126.851562 151.753906 127.34375 150.621094 128.210938 149.667969 C 128.820312 148.992188 129.558594 148.464844 130.402344 148.09375 C 131.195312 147.746094 132.082031 147.535156 133.035156 147.472656 C 134.386719 147.378906 135.863281 147.582031 137.304688 148.054688 C 138.691406 148.511719 139.984375 149.191406 141.050781 150.027344 C 142.65625 151.285156 143.910156 153.050781 144.886719 155.433594 C 145.753906 157.546875 146.277344 159.8125 146.785156 162.136719 C 147.039062 163.316406 147.382812 165.097656 147.546875 166.875 C 147.734375 168.871094 147.660156 170.402344 147.332031 171.425781 C 147.257812 171.664062 147.164062 171.875 147.058594 172.054688 " fill-opacity="1" fill-rule="nonzero"/><g clip-path="url(#11ddb88ab7)"><path fill="#000000" d="M 149.296875 165.707031 C 149.40625 162.390625 150.738281 159.1875 153.042969 156.691406 C 155.296875 154.25 158.394531 152.570312 161.761719 151.96875 C 162.890625 151.765625 164.054688 151.683594 165.214844 151.71875 C 169.320312 151.859375 173.136719 153.484375 175.957031 156.304688 C 178.796875 159.144531 180.289062 162.847656 180.160156 166.734375 C 180.054688 169.882812 178.871094 172.65625 176.734375 174.757812 C 174.761719 176.695312 172.019531 178.027344 168.808594 178.601562 C 168.6875 178.625 168.566406 178.644531 168.445312 178.664062 C 168.132812 178.714844 167.8125 178.757812 167.492188 178.792969 C 166.457031 178.90625 165.390625 178.945312 164.304688 178.910156 C 163.246094 178.875 162.214844 178.769531 161.21875 178.59375 C 160.898438 178.535156 160.578125 178.472656 160.265625 178.402344 C 157.691406 177.820312 155.40625 176.765625 153.617188 175.3125 C 150.660156 172.90625 149.167969 169.582031 149.296875 165.707031 " fill-opacity="1" fill-rule="nonzero"/></g><path fill="#fbc906" d="M 150.457031 165.746094 C 150.703125 158.375 157.292969 152.617188 165.175781 152.878906 C 173.054688 153.144531 179.246094 159.328125 179 166.695312 C 178.75 174.066406 172.222656 178.015625 164.34375 177.75 C 156.460938 177.488281 150.210938 173.113281 150.457031 165.746094 " fill-opacity="1" fill-rule="nonzero"/><path fill="#000000" d="M 166.878906 144.546875 C 166.902344 144.292969 166.722656 144.070312 166.472656 144.03125 C 166.464844 144.03125 166.457031 144.03125 166.449219 144.03125 C 164.757812 143.878906 163.382812 144.40625 162.359375 145.601562 C 161.410156 146.710938 160.8125 148.375 160.632812 150.421875 C 160.472656 152.234375 160.648438 154.289062 161.125 156.207031 C 161.167969 156.367188 161.285156 156.496094 161.445312 156.542969 C 161.46875 156.554688 161.492188 156.558594 161.519531 156.5625 C 161.582031 156.570312 161.644531 156.566406 161.703125 156.554688 C 161.828125 156.523438 161.929688 156.445312 161.996094 156.335938 C 162.0625 156.226562 162.082031 156.101562 162.050781 155.976562 C 161.613281 154.21875 161.441406 152.328125 161.566406 150.652344 C 161.710938 148.742188 162.234375 147.210938 163.082031 146.222656 C 163.894531 145.273438 164.996094 144.855469 166.363281 144.976562 C 166.625 145 166.855469 144.804688 166.878906 144.546875 " fill-opacity="1" fill-rule="nonzero"/><g clip-path="url(#29778e6623)"><path fill="#000000" d="M 169.722656 144.011719 C 169.726562 143.921875 169.722656 143.828125 169.710938 143.738281 C 169.648438 143.261719 169.40625 142.804688 169.003906 142.433594 C 168.546875 142.007812 167.910156 141.71875 167.210938 141.617188 C 167.054688 141.59375 166.894531 141.582031 166.734375 141.578125 C 165.929688 141.558594 165.167969 141.785156 164.585938 142.207031 C 164.429688 142.324219 164.289062 142.449219 164.167969 142.585938 C 163.832031 142.960938 163.648438 143.40625 163.640625 143.875 C 163.632812 144.089844 163.664062 144.296875 163.730469 144.5 C 163.828125 144.796875 163.996094 145.074219 164.226562 145.324219 C 164.269531 145.367188 164.3125 145.410156 164.355469 145.453125 C 164.816406 145.878906 165.453125 146.171875 166.152344 146.269531 C 166.308594 146.292969 166.46875 146.308594 166.628906 146.308594 C 167.433594 146.328125 168.195312 146.105469 168.777344 145.679688 C 169.371094 145.246094 169.710938 144.652344 169.722656 144.011719 " fill-opacity="1" fill-rule="nonzero"/></g><path fill="#000000" d="M 176.628906 146.246094 C 176.726562 146.011719 176.621094 145.742188 176.394531 145.632812 C 176.386719 145.628906 176.378906 145.625 176.371094 145.621094 C 174.804688 144.96875 173.335938 145.058594 171.996094 145.886719 C 170.757812 146.652344 169.683594 148.0625 168.890625 149.957031 C 168.1875 151.632812 167.730469 153.644531 167.605469 155.617188 C 167.597656 155.785156 167.671875 155.941406 167.804688 156.035156 C 167.828125 156.050781 167.851562 156.066406 167.875 156.078125 C 167.929688 156.105469 167.988281 156.121094 168.050781 156.125 C 168.179688 156.132812 168.300781 156.089844 168.394531 156.003906 C 168.492188 155.921875 168.550781 155.804688 168.558594 155.679688 C 168.671875 153.871094 169.082031 152.019531 169.710938 150.457031 C 170.425781 148.683594 171.390625 147.378906 172.5 146.695312 C 173.558594 146.035156 174.738281 145.972656 176.003906 146.5 C 176.246094 146.601562 176.527344 146.488281 176.628906 146.246094 " fill-opacity="1" fill-rule="nonzero"/><path fill="#000000" d="M 179.5 146.597656 C 179.527344 146.511719 179.550781 146.421875 179.566406 146.332031 C 179.65625 145.859375 179.5625 145.351562 179.292969 144.878906 C 178.984375 144.332031 178.464844 143.863281 177.828125 143.554688 C 177.6875 143.484375 177.539062 143.425781 177.386719 143.375 C 176.628906 143.113281 175.832031 143.09375 175.148438 143.324219 C 174.964844 143.386719 174.792969 143.464844 174.636719 143.558594 C 174.203125 143.8125 173.894531 144.179688 173.742188 144.628906 C 173.671875 144.828125 173.636719 145.039062 173.640625 145.25 C 173.640625 145.5625 173.714844 145.878906 173.863281 146.183594 C 173.886719 146.238281 173.914062 146.292969 173.945312 146.347656 C 174.253906 146.894531 174.773438 147.363281 175.410156 147.671875 C 175.550781 147.738281 175.699219 147.800781 175.851562 147.851562 C 176.613281 148.113281 177.40625 148.128906 178.089844 147.902344 C 178.789062 147.667969 179.289062 147.203125 179.5 146.597656 " fill-opacity="1" fill-rule="nonzero"/><path fill="#ffffff" d="M 159.304688 168.40625 C 156.835938 168.78125 154.480469 166.75 154.050781 163.875 C 153.621094 161 155.28125 158.355469 157.75 157.976562 C 160.222656 157.601562 162.578125 159.632812 163.007812 162.507812 C 163.433594 165.382812 161.773438 168.027344 159.304688 168.40625 " fill-opacity="1" fill-rule="nonzero"/><path fill="#000000" d="M 159.003906 166.382812 C 157.492188 166.613281 156.050781 165.367188 155.789062 163.609375 C 155.527344 161.851562 156.542969 160.230469 158.054688 160 C 159.5625 159.773438 161.007812 161.015625 161.269531 162.773438 C 161.53125 164.535156 160.515625 166.152344 159.003906 166.382812 " fill-opacity="1" fill-rule="nonzero"/><path fill="#ffffff" d="M 157.765625 162.027344 C 157.652344 161.277344 158.085938 160.589844 158.730469 160.492188 C 159.375 160.394531 159.988281 160.921875 160.101562 161.671875 C 160.214844 162.425781 159.78125 163.113281 159.136719 163.210938 C 158.492188 163.308594 157.878906 162.78125 157.765625 162.027344 " fill-opacity="1" fill-rule="nonzero"/><path fill="#ffffff" d="M 159.671875 163.777344 C 159.628906 163.492188 159.792969 163.226562 160.042969 163.1875 C 160.289062 163.152344 160.523438 163.355469 160.566406 163.640625 C 160.609375 163.929688 160.445312 164.195312 160.195312 164.234375 C 159.949219 164.269531 159.714844 164.066406 159.671875 163.777344 " fill-opacity="1" fill-rule="nonzero"/><path fill="#ffffff" d="M 171.378906 168.445312 C 168.890625 168.660156 166.671875 166.476562 166.425781 163.578125 C 166.183594 160.683594 168.007812 158.152344 170.496094 157.9375 C 172.984375 157.722656 175.207031 159.90625 175.449219 162.804688 C 175.695312 165.699219 173.867188 168.230469 171.378906 168.445312 " fill-opacity="1" fill-rule="nonzero"/><path fill="#000000" d="M 171.207031 166.40625 C 169.6875 166.535156 168.328125 165.199219 168.179688 163.429688 C 168.027344 161.65625 169.148438 160.109375 170.667969 159.976562 C 172.191406 159.847656 173.550781 161.183594 173.699219 162.953125 C 173.847656 164.726562 172.730469 166.273438 171.207031 166.40625 " fill-opacity="1" fill-rule="nonzero"/><path fill="#ffffff" d="M 170.300781 162.027344 C 170.1875 161.277344 170.621094 160.589844 171.265625 160.492188 C 171.910156 160.394531 172.523438 160.921875 172.636719 161.671875 C 172.746094 162.425781 172.316406 163.113281 171.671875 163.210938 C 171.023438 163.308594 170.410156 162.78125 170.300781 162.027344 " fill-opacity="1" fill-rule="nonzero"/><path fill="#ffffff" d="M 172.203125 163.777344 C 172.160156 163.492188 172.328125 163.226562 172.574219 163.1875 C 172.824219 163.152344 173.058594 163.355469 173.101562 163.640625 C 173.144531 163.929688 172.980469 164.195312 172.730469 164.234375 C 172.484375 164.269531 172.246094 164.066406 172.203125 163.777344 " fill-opacity="1" fill-rule="nonzero"/><path fill="#000000" d="M 164.726562 173.96875 C 166.867188 173.96875 168.625 172.355469 168.855469 170.28125 C 168.882812 170.035156 168.691406 169.820312 168.441406 169.820312 L 161.015625 169.820312 C 160.765625 169.820312 160.574219 170.035156 160.601562 170.28125 C 160.832031 172.355469 162.589844 173.96875 164.726562 173.96875 " fill-opacity="1" fill-rule="nonzero"/><g fill="#545454" fill-opacity="1"><g transform="translate(44.668274, 244.53116)"><g><path d="M 20.8125 0.933594 C 30.484375 0.933594 38.488281 -3.933594 38.488281 -14.007812 C 38.488281 -24.480469 29.550781 -26.679688 22.480469 -28.480469 C 17.476562 -29.683594 13.472656 -30.683594 13.472656 -33.953125 C 13.472656 -37.019531 16.742188 -38.421875 20.011719 -38.421875 C 23.8125 -38.421875 27.148438 -36.554688 27.148438 -32.484375 L 37.085938 -32.484375 C 37.085938 -41.824219 31.015625 -47.558594 20.277344 -47.558594 C 9.9375 -47.558594 3.335938 -42.488281 3.335938 -33.550781 C 3.335938 -23.480469 11.875 -21.410156 18.945312 -19.675781 C 24.011719 -18.542969 28.28125 -17.542969 28.28125 -13.875 C 28.28125 -10.40625 24.546875 -8.40625 20.746094 -8.40625 C 16.609375 -8.40625 12.875 -10.605469 12.875 -15.074219 L 2.667969 -15.074219 C 2.667969 -5.070312 10.070312 0.933594 20.8125 0.933594 Z M 20.8125 0.933594 "/></g></g></g><g fill="#545454" fill-opacity="1"><g transform="translate(85.950295, 244.53116)"><g><path d="M 25.28125 -36.820312 C 20.945312 -36.820312 17.144531 -35.21875 14.40625 -32.617188 L 14.40625 -48.960938 L 4.667969 -48.960938 L 4.667969 0 L 14.40625 0 L 14.40625 -18.878906 C 14.40625 -24.746094 17.609375 -28.28125 22.480469 -28.28125 C 26.816406 -28.28125 28.75 -25.613281 28.75 -20.210938 L 28.75 0 L 38.488281 0 L 38.488281 -21.878906 C 38.488281 -31.015625 33.417969 -36.820312 25.28125 -36.820312 Z M 25.28125 -36.820312 "/></g></g></g><g fill="#545454" fill-opacity="1"><g transform="translate(128.699527, 244.53116)"><g><path d="M 21.746094 1.066406 C 32.882812 1.066406 41.222656 -7.136719 41.222656 -18.011719 C 41.222656 -28.882812 32.882812 -37.019531 21.746094 -37.019531 C 10.605469 -37.019531 2.269531 -28.882812 2.269531 -18.011719 C 2.269531 -7.136719 10.605469 1.066406 21.746094 1.066406 Z M 21.746094 -8.136719 C 16.140625 -8.136719 12.140625 -12.140625 12.140625 -18.011719 C 12.140625 -23.8125 16.140625 -27.882812 21.746094 -27.882812 C 27.347656 -27.882812 31.351562 -23.8125 31.351562 -18.011719 C 31.351562 -12.140625 27.347656 -8.136719 21.746094 -8.136719 Z M 21.746094 -8.136719 "/></g></g></g><g fill="#545454" fill-opacity="1"><g transform="translate(172.249054, 244.53116)"><g><path d="M 24.28125 -37.019531 C 19.8125 -37.019531 15.808594 -35.417969 12.742188 -32.683594 L 11.074219 -36.019531 L 4.667969 -36.019531 L 4.667969 13.007812 L 14.40625 13.007812 L 14.40625 -1.933594 C 17.144531 0 20.542969 1.132812 24.28125 1.132812 C 35.152344 1.132812 43.15625 -7.070312 43.15625 -18.011719 C 43.15625 -28.882812 35.152344 -37.019531 24.28125 -37.019531 Z M 23.480469 -8.136719 C 17.808594 -8.136719 13.675781 -12.339844 13.675781 -18.011719 C 13.675781 -23.613281 17.808594 -27.882812 23.480469 -27.882812 C 29.148438 -27.882812 33.285156 -23.613281 33.285156 -18.011719 C 33.285156 -12.339844 29.148438 -8.136719 23.480469 -8.136719 Z M 23.480469 -8.136719 "/></g></g></g><g fill="#545454" fill-opacity="1"><g transform="translate(217.732639, 244.53116)"><g><path d="M 33.417969 -24.613281 C 36.6875 -26.882812 38.6875 -30.617188 38.6875 -34.617188 C 38.6875 -41.488281 32.683594 -46.625 24.613281 -46.625 L 5.335938 -46.625 L 5.335938 0.0664062 L 25.148438 0.0664062 C 33.285156 0.0664062 39.886719 -5.9375 39.886719 -13.40625 C 39.886719 -18.410156 37.488281 -22.414062 33.417969 -24.613281 Z M 28.882812 -33.085938 C 28.882812 -30.148438 26.816406 -28.082031 23.679688 -28.082031 L 15.207031 -28.082031 L 15.207031 -38.019531 L 23.679688 -38.019531 C 26.816406 -38.019531 28.882812 -36.019531 28.882812 -33.085938 Z M 24.214844 -9.203125 L 15.207031 -9.203125 L 15.207031 -19.675781 L 24.214844 -19.675781 C 27.546875 -19.675781 29.75 -17.476562 29.75 -14.476562 C 29.75 -11.40625 27.546875 -9.203125 24.214844 -9.203125 Z M 24.214844 -9.203125 "/></g></g></g><g fill="#545454" fill-opacity="1"><g transform="translate(260.548562, 244.53116)"><g><path d="M 39.621094 -18.078125 C 39.621094 -28.480469 32.019531 -37.019531 20.945312 -37.019531 C 10.273438 -37.019531 2.269531 -28.816406 2.269531 -18.011719 C 2.269531 -7.203125 10.339844 1.066406 20.945312 1.066406 C 29.347656 1.066406 36.21875 -3.933594 38.820312 -11.804688 L 28.617188 -11.804688 C 27.148438 -9.203125 24.347656 -7.605469 20.945312 -7.605469 C 16.207031 -7.605469 13.007812 -10.339844 12.140625 -15.273438 L 39.421875 -15.273438 C 39.554688 -16.207031 39.621094 -17.144531 39.621094 -18.078125 Z M 20.945312 -28.683594 C 25.347656 -28.683594 28.480469 -26.28125 29.882812 -21.878906 L 12.40625 -21.878906 C 13.539062 -26.148438 16.609375 -28.683594 20.945312 -28.683594 Z M 20.945312 -28.683594 "/></g></g></g><g fill="#545454" fill-opacity="1"><g transform="translate(302.43081, 244.53116)"><g><path d="M 39.621094 -18.078125 C 39.621094 -28.480469 32.019531 -37.019531 20.945312 -37.019531 C 10.273438 -37.019531 2.269531 -28.816406 2.269531 -18.011719 C 2.269531 -7.203125 10.339844 1.066406 20.945312 1.066406 C 29.347656 1.066406 36.21875 -3.933594 38.820312 -11.804688 L 28.617188 -11.804688 C 27.148438 -9.203125 24.347656 -7.605469 20.945312 -7.605469 C 16.207031 -7.605469 13.007812 -10.339844 12.140625 -15.273438 L 39.421875 -15.273438 C 39.554688 -16.207031 39.621094 -17.144531 39.621094 -18.078125 Z M 20.945312 -28.683594 C 25.347656 -28.683594 28.480469 -26.28125 29.882812 -21.878906 L 12.40625 -21.878906 C 13.539062 -26.148438 16.609375 -28.683594 20.945312 -28.683594 Z M 20.945312 -28.683594 "/></g></g></g></svg>